<svg width="1440" height="3385" viewBox="0 0 1440 3385" fill="none" xmlns="http://www.w3.org/2000/svg">
<mask id="mask0_17_216" style="mask-type:luminance" maskUnits="userSpaceOnUse" x="1169" y="741" width="233" height="74">
<path d="M1185.14 778C1185.14 766.531 1194.47 757.206 1205.94 757.206H1364.68C1376.15 757.206 1385.48 766.531 1385.48 778C1385.48 789.469 1376.15 798.794 1364.68 798.794H1205.94C1194.47 798.794 1185.14 789.469 1185.14 778ZM1205.93 741.07C1185.56 741.07 1169 757.639 1169 778.008C1169 798.376 1185.57 814.946 1205.93 814.946H1364.68C1385.05 814.946 1401.61 798.376 1401.61 778.008C1401.61 757.639 1385.04 741.07 1364.68 741.07H1205.93Z" fill="white"/>
</mask>
<g mask="url(#mask0_17_216)">
<path d="M1343.46 640.342L1137.01 759.534L1227.15 915.663L1433.6 796.47L1343.46 640.342Z" fill="url(#paint0_linear_17_216)"/>
</g>
<mask id="mask1_17_216" style="mask-type:luminance" maskUnits="userSpaceOnUse" x="1248" y="669" width="75" height="218">
<path d="M1248.82 757.206V850.062C1248.82 870.431 1265.39 887 1285.76 887C1306.12 887 1322.69 870.431 1322.69 850.062V814.938H1306.54V850.062C1306.54 861.524 1297.22 870.857 1285.75 870.857C1274.28 870.857 1264.95 861.531 1264.95 850.062V757.206H1248.81H1248.82ZM1248.82 705.938V741.062H1264.96V705.938C1264.96 694.469 1274.29 685.144 1285.76 685.144C1297.23 685.144 1306.55 694.469 1306.55 705.938V798.794H1322.69V705.938C1322.69 685.569 1306.12 669 1285.76 669C1265.4 669 1248.83 685.569 1248.83 705.938" fill="white"/>
</mask>
<g mask="url(#mask1_17_216)">
<path d="M1304.22 637.02L1154.43 723.503L1267.29 918.987L1417.09 832.503L1304.22 637.02Z" fill="url(#paint1_linear_17_216)"/>
</g>
<path d="M227.73 1168.03H231.73C231.73 1181.86 220.52 1193.06 206.7 1193.06H97.03C83.2 1193.06 72 1181.85 72 1168.03C72 1154.2 83.21 1143 97.03 1143H206.7C220.53 1143 231.73 1154.21 231.73 1168.03H223.73C223.71 1158.63 216.1 1151.02 206.7 1151H97.03C87.63 1151.02 80.02 1158.63 80 1168.03C80.02 1177.43 87.63 1185.04 97.03 1185.06H206.7C216.11 1185.04 223.71 1177.43 223.73 1168.03H227.73Z" fill="url(#paint2_linear_17_216)"/>
<path d="M1475.73 3119.03H1479.73C1479.73 3132.86 1468.52 3144.06 1454.7 3144.06H1345.03C1331.2 3144.06 1320 3132.85 1320 3119.03C1320 3105.2 1331.21 3094 1345.03 3094H1454.7C1468.53 3094 1479.73 3105.21 1479.73 3119.03H1471.73C1471.71 3109.63 1464.1 3102.02 1454.7 3102H1345.03C1335.63 3102.02 1328.02 3109.63 1328 3119.03C1328.02 3128.43 1335.63 3136.04 1345.03 3136.06H1454.7C1464.11 3136.04 1471.71 3128.43 1471.73 3119.03H1475.73Z" fill="url(#paint3_linear_17_216)"/>
<mask id="mask2_17_216" style="mask-type:luminance" maskUnits="userSpaceOnUse" x="144" y="784" width="152" height="43">
<path d="M165.03 784C153.41 784 144 793.42 144 805.03C144 816.64 153.42 826.06 165.03 826.06H274.7C286.31 826.06 295.73 816.64 295.73 805.03C295.73 793.42 286.31 784 274.7 784H165.03Z" fill="white"/>
</mask>
<g mask="url(#mask2_17_216)">
<path d="M181.934 718.285L125.784 815.54L257.801 891.76L313.951 794.505L181.934 718.285Z" fill="url(#paint4_linear_17_216)"/>
</g>
<path d="M-38.96 279.58V280.08C-116.3 280.08 -179 217.38 -179 140.04C-179 62.7 -116.3 0 -38.96 0C38.38 0 101.08 62.7 101.08 140.04C101.08 217.38 38.38 280.08 -38.96 280.08V279.08C37.83 278.94 99.94 216.83 100.08 140.04C99.94 63.25 37.83 1.14 -38.96 1C-115.75 1.14 -177.86 63.25 -178 140.04C-177.86 216.83 -115.75 278.94 -38.96 279.08V279.58Z" fill="url(#paint5_linear_17_216)"/>
<mask id="mask3_17_216" style="mask-type:luminance" maskUnits="userSpaceOnUse" x="1379" y="80" width="427" height="427">
<path d="M1379 293.5C1379 411.416 1474.58 507 1592.5 507C1710.42 507 1806 411.416 1806 293.5C1806 175.584 1710.42 80 1592.5 80C1474.58 80 1379 175.584 1379 293.5Z" fill="white"/>
</mask>
<g mask="url(#mask3_17_216)">
<path d="M1485.83 -104.92L1194.14 400.296L1699.36 691.983L1991.04 186.767L1485.83 -104.92Z" fill="url(#paint6_linear_17_216)"/>
</g>
<mask id="mask4_17_216" style="mask-type:luminance" maskUnits="userSpaceOnUse" x="1205" y="2462" width="296" height="95">
<path d="M1225.48 2509.28C1225.48 2494.73 1237.31 2482.9 1251.86 2482.9H1453.25C1467.8 2482.9 1479.63 2494.73 1479.63 2509.28C1479.63 2523.83 1467.8 2535.66 1453.25 2535.66H1251.86C1237.31 2535.66 1225.48 2523.83 1225.48 2509.28ZM1251.85 2462.43C1226.01 2462.43 1205 2483.45 1205 2509.29C1205 2535.13 1226.02 2556.15 1251.85 2556.15H1453.24C1479.08 2556.15 1500.09 2535.13 1500.09 2509.29C1500.09 2483.45 1479.07 2462.43 1453.24 2462.43H1251.85Z" fill="white"/>
</mask>
<g mask="url(#mask4_17_216)">
<path d="M1426.32 2334.64L1164.42 2485.85L1278.78 2683.92L1540.68 2532.71L1426.32 2334.64Z" fill="url(#paint7_linear_17_216)"/>
</g>
<mask id="mask5_17_216" style="mask-type:luminance" maskUnits="userSpaceOnUse" x="1306" y="2371" width="94" height="277">
<path d="M1326.74 2600.7V2417.86C1326.74 2403.31 1338.57 2391.48 1353.12 2391.48C1367.67 2391.48 1379.5 2403.31 1379.5 2417.86V2600.7C1379.5 2615.24 1367.67 2627.08 1353.12 2627.08C1338.57 2627.08 1326.74 2615.25 1326.74 2600.7ZM1306.26 2417.86V2600.7C1306.26 2626.54 1327.28 2647.56 1353.12 2647.56C1378.96 2647.56 1399.97 2626.54 1399.97 2600.7V2417.86C1399.97 2392.02 1378.95 2371 1353.12 2371C1327.29 2371 1306.26 2392.02 1306.26 2417.86Z" fill="white"/>
</mask>
<g mask="url(#mask5_17_216)">
<path d="M1376.55 2330.43L1186.52 2440.14L1329.7 2688.14L1519.73 2578.42L1376.55 2330.43Z" fill="url(#paint8_linear_17_216)"/>
</g>
<path d="M-60.5 2287.79V2304C-207.687 2303.99 -326.991 2184.69 -327 2037.5C-326.991 1890.31 -207.687 1771.01 -60.5 1771C86.687 1771.01 205.991 1890.31 206 2037.5C205.991 2184.69 86.687 2303.99 -60.5 2304V2287.79V2271.58C68.7738 2271.34 173.344 2166.77 173.578 2037.5C173.344 1908.23 68.7738 1803.66 -60.5 1803.42C-189.774 1803.66 -294.344 1908.23 -294.578 2037.5C-294.344 2166.77 -189.774 2271.34 -60.5 2271.58V2287.79Z" fill="url(#paint9_linear_17_216)"/>
<path d="M147.86 1430V1432C135.24 1432.02 125.02 1442.23 125 1454.86V1549.19C125.02 1561.81 135.23 1572.03 147.86 1572.05C160.48 1572.03 170.7 1561.81 170.72 1549.19V1454.86C170.7 1442.24 160.49 1432.02 147.86 1432V1428C162.69 1428 174.72 1440.02 174.72 1454.86V1549.19C174.72 1564.02 162.7 1576.05 147.86 1576.05C133.03 1576.05 121 1564.03 121 1549.19V1454.86C121 1440.03 133.02 1428 147.86 1428V1430Z" fill="url(#paint10_linear_17_216)"/>
<mask id="mask6_17_216" style="mask-type:luminance" maskUnits="userSpaceOnUse" x="1331" y="1978" width="77" height="77">
<path d="M1336.7 1983.71C1329.1 1991.31 1329.1 2003.69 1336.7 2011.29L1380.29 2054.89L1386.32 2048.86L1342.73 2005.26C1338.45 2000.98 1338.45 1994.01 1342.73 1989.73C1347.01 1985.45 1353.98 1985.45 1358.26 1989.73L1401.85 2033.33L1407.88 2027.3L1364.29 1983.7C1360.49 1979.9 1355.49 1978 1350.5 1978C1345.51 1978 1340.51 1979.9 1336.71 1983.7" fill="white"/>
</mask>
<g mask="url(#mask6_17_216)">
<path d="M1334.37 1958.31L1309.87 2049.73L1402.6 2074.58L1427.1 1983.15L1334.37 1958.31Z" fill="url(#paint11_linear_17_216)"/>
</g>
<mask id="mask7_17_216" style="mask-type:luminance" maskUnits="userSpaceOnUse" x="1352" y="1980" width="75" height="69">
<path d="M1352.71 2027.3L1358.74 2033.33L1380.3 2011.77L1374.27 2005.74L1352.72 2027.29L1352.71 2027.3ZM1393.41 1986.6L1380.29 1999.72L1386.32 2005.75L1399.44 1992.63C1403.72 1988.35 1410.69 1988.35 1414.97 1992.63C1419.25 1996.91 1419.25 2003.88 1414.97 2008.16L1380.3 2042.83L1386.33 2048.86L1421 2014.19C1428.6 2006.58 1428.6 1994.21 1421 1986.61C1417.2 1982.81 1412.2 1980.91 1407.21 1980.91C1402.22 1980.91 1397.22 1982.81 1393.42 1986.61" fill="white"/>
</mask>
<g mask="url(#mask7_17_216)">
<path d="M1357.79 1961.93L1335.71 2044.3L1423.51 2067.83L1445.58 1985.45L1357.79 1961.93Z" fill="url(#paint12_linear_17_216)"/>
</g>
<path d="M495.31 573.5H496C496 590.897 482.001 605 464.733 605H389.267C371.999 605 358 590.897 358 573.5C358 556.103 371.999 542 389.267 542H464.733C482.001 542 496 556.103 496 573.5H494.62C494.59 556.87 481.24 543.421 464.733 543.39H389.267C372.76 543.421 359.41 556.87 359.38 573.5C359.41 590.13 372.76 603.579 389.267 603.61H464.733C481.24 603.579 494.59 590.13 494.62 573.5H495.31Z" fill="url(#paint13_linear_17_216)"/>
<path d="M740.93 59.36V61.86C729.92 61.86 721 52.94 721 41.93C721 30.92 729.92 22 740.93 22C751.94 22 760.86 30.92 760.86 41.93C760.86 52.94 751.94 61.86 740.93 61.86V56.86C749.18 56.85 755.85 50.17 755.86 41.93C755.85 33.68 749.17 27.01 740.93 27C732.68 27.01 726.01 33.69 726 41.93C726.01 50.18 732.69 56.85 740.93 56.86V59.36Z" fill="url(#paint14_linear_17_216)"/>
<path d="M141.93 2593.36V2595.86C130.92 2595.86 122 2586.94 122 2575.93C122 2564.92 130.92 2556 141.93 2556C152.94 2556 161.86 2564.92 161.86 2575.93C161.86 2586.94 152.94 2595.86 141.93 2595.86V2590.86C150.18 2590.85 156.85 2584.17 156.86 2575.93C156.85 2567.68 150.17 2561.01 141.93 2561C133.68 2561.01 127.01 2567.69 127 2575.93C127.01 2584.18 133.69 2590.85 141.93 2590.86V2593.36Z" fill="url(#paint15_linear_17_216)"/>
<path d="M1176.93 2857.36V2859.86C1165.92 2859.86 1157 2850.94 1157 2839.93C1157 2828.92 1165.92 2820 1176.93 2820C1187.94 2820 1196.86 2828.92 1196.86 2839.93C1196.86 2850.94 1187.94 2859.86 1176.93 2859.86V2854.86C1185.18 2854.85 1191.85 2848.17 1191.86 2839.93C1191.85 2831.68 1185.17 2825.01 1176.93 2825C1168.68 2825.01 1162.01 2831.69 1162 2839.93C1162.01 2848.18 1168.69 2854.85 1176.93 2854.86V2857.36Z" fill="url(#paint16_linear_17_216)"/>
<path d="M173.5 451.878V453C166.599 453 161 447.406 161 440.5C161 433.594 166.594 428 173.5 428C180.401 428 186 433.594 186 440.5C186 447.401 180.406 453 173.5 453V450.756C179.161 450.745 183.745 446.167 183.756 440.5C183.745 434.839 179.166 430.255 173.5 430.244C167.839 430.255 163.255 434.833 163.244 440.5C163.255 446.161 167.839 450.745 173.5 450.756V451.878Z" fill="url(#paint17_linear_17_216)"/>
<path d="M69.5 3383.31V3385C-26.878 3385 -105 3306.65 -105 3210C-105 3113.35 -26.8696 3035 69.5 3035C165.878 3035 244 3113.35 244 3210C244 3306.65 165.87 3385 69.5 3385V3381.61C164.013 3381.44 240.455 3304.78 240.624 3210C240.455 3115.22 164.004 3038.56 69.5 3038.39C-25.0127 3038.56 -101.455 3115.22 -101.624 3210C-101.455 3304.78 -25.0043 3381.44 69.5 3381.61V3383.31Z" fill="url(#paint18_linear_17_216)"/>
<path d="M296.86 2904V2906C284.24 2906.02 274.02 2916.23 274 2928.86V3023.19C274.02 3035.81 284.23 3046.03 296.86 3046.05C309.48 3046.03 319.7 3035.81 319.72 3023.19V2928.86C319.7 2916.24 309.49 2906.02 296.86 2906V2902C311.69 2902 323.72 2914.02 323.72 2928.86V3023.19C323.72 3038.02 311.7 3050.05 296.86 3050.05C282.03 3050.05 270 3038.03 270 3023.19V2928.86C270 2914.03 282.02 2902 296.86 2902V2904Z" fill="url(#paint19_linear_17_216)"/>
<path d="M1249.32 1269.64V1270.64C1238.1 1270.64 1229 1261.54 1229 1250.32C1229 1239.1 1238.1 1230 1249.32 1230C1260.54 1230 1269.64 1239.1 1269.64 1250.32C1269.64 1261.54 1260.54 1270.64 1249.32 1270.64V1268.64C1259.44 1268.62 1267.62 1260.44 1267.64 1250.32C1267.62 1240.2 1259.44 1232.02 1249.32 1232C1239.2 1232.02 1231.02 1240.2 1231 1250.32C1231.02 1260.44 1239.2 1268.62 1249.32 1268.64V1269.64Z" fill="url(#paint20_linear_17_216)"/>
<defs>
<linearGradient id="paint0_linear_17_216" x1="1375.81" y1="723.709" x2="1192.79" y2="829.375" gradientUnits="userSpaceOnUse">
<stop stop-color="#00F09E"/>
<stop offset="0.14" stop-color="#00E8A6"/>
<stop offset="0.35" stop-color="#01D5BD"/>
<stop offset="0.62" stop-color="#02B6E3"/>
<stop offset="0.78" stop-color="#04A2FD"/>
<stop offset="1" stop-color="#04A2FD"/>
</linearGradient>
<linearGradient id="paint1_linear_17_216" x1="1223.42" y1="815.854" x2="1349.78" y2="742.897" gradientUnits="userSpaceOnUse">
<stop stop-color="#00F09E"/>
<stop offset="0.16" stop-color="#00F09E"/>
<stop offset="0.24" stop-color="#00EAA4"/>
<stop offset="0.36" stop-color="#01DAB8"/>
<stop offset="0.49" stop-color="#02C0D8"/>
<stop offset="0.62" stop-color="#04A2FD"/>
<stop offset="1" stop-color="#04A2FD"/>
</linearGradient>
<linearGradient id="paint2_linear_17_216" x1="88.5146" y1="1131.87" x2="214.998" y2="1204.89" gradientUnits="userSpaceOnUse">
<stop stop-color="#00F09E"/>
<stop offset="0.14" stop-color="#00E8A6"/>
<stop offset="0.35" stop-color="#01D5BD"/>
<stop offset="0.62" stop-color="#02B6E3"/>
<stop offset="0.78" stop-color="#04A2FD"/>
<stop offset="1" stop-color="#04A2FD"/>
</linearGradient>
<linearGradient id="paint3_linear_17_216" x1="1336.51" y1="3082.87" x2="1463" y2="3155.89" gradientUnits="userSpaceOnUse">
<stop stop-color="#00F09E"/>
<stop offset="0.14" stop-color="#00E8A6"/>
<stop offset="0.35" stop-color="#01D5BD"/>
<stop offset="0.62" stop-color="#02B6E3"/>
<stop offset="0.78" stop-color="#04A2FD"/>
<stop offset="1" stop-color="#04A2FD"/>
</linearGradient>
<linearGradient id="paint4_linear_17_216" x1="160.379" y1="771.327" x2="279.067" y2="839.852" gradientUnits="userSpaceOnUse">
<stop stop-color="#00F09E"/>
<stop offset="0.14" stop-color="#00E8A6"/>
<stop offset="0.35" stop-color="#01D5BD"/>
<stop offset="0.62" stop-color="#02B6E3"/>
<stop offset="0.78" stop-color="#04A2FD"/>
<stop offset="1" stop-color="#04A2FD"/>
</linearGradient>
<linearGradient id="paint5_linear_17_216" x1="-163.482" y1="74.1936" x2="79.9835" y2="214.759" gradientUnits="userSpaceOnUse">
<stop stop-color="#00F09E"/>
<stop offset="0.16" stop-color="#00F09E"/>
<stop offset="0.24" stop-color="#00EAA4"/>
<stop offset="0.36" stop-color="#01DAB8"/>
<stop offset="0.49" stop-color="#02C0D8"/>
<stop offset="0.62" stop-color="#04A2FD"/>
<stop offset="1" stop-color="#04A2FD"/>
</linearGradient>
<linearGradient id="paint6_linear_17_216" x1="1396.42" y1="203.435" x2="1766.3" y2="416.986" gradientUnits="userSpaceOnUse">
<stop stop-color="#00F09E"/>
<stop offset="0.16" stop-color="#00F09E"/>
<stop offset="0.24" stop-color="#00EAA4"/>
<stop offset="0.36" stop-color="#01DAB8"/>
<stop offset="0.49" stop-color="#02C0D8"/>
<stop offset="0.62" stop-color="#04A2FD"/>
<stop offset="1" stop-color="#04A2FD"/>
</linearGradient>
<linearGradient id="paint7_linear_17_216" x1="1467.37" y1="2440.41" x2="1235.19" y2="2574.46" gradientUnits="userSpaceOnUse">
<stop stop-color="#00F09E"/>
<stop offset="0.14" stop-color="#00E8A6"/>
<stop offset="0.35" stop-color="#01D5BD"/>
<stop offset="0.62" stop-color="#02B6E3"/>
<stop offset="0.78" stop-color="#04A2FD"/>
<stop offset="1" stop-color="#04A2FD"/>
</linearGradient>
<linearGradient id="paint8_linear_17_216" x1="1274.04" y1="2557.3" x2="1434.35" y2="2464.75" gradientUnits="userSpaceOnUse">
<stop stop-color="#00F09E"/>
<stop offset="0.16" stop-color="#00F09E"/>
<stop offset="0.24" stop-color="#00EAA4"/>
<stop offset="0.36" stop-color="#01DAB8"/>
<stop offset="0.49" stop-color="#02C0D8"/>
<stop offset="0.62" stop-color="#04A2FD"/>
<stop offset="1" stop-color="#04A2FD"/>
</linearGradient>
<linearGradient id="paint9_linear_17_216" x1="-290.446" y1="1904.26" x2="171.996" y2="2171.25" gradientUnits="userSpaceOnUse">
<stop stop-color="#00F09E"/>
<stop offset="0.16" stop-color="#00F09E"/>
<stop offset="0.24" stop-color="#00EAA4"/>
<stop offset="0.36" stop-color="#01DAB8"/>
<stop offset="0.49" stop-color="#02C0D8"/>
<stop offset="0.62" stop-color="#04A2FD"/>
<stop offset="1" stop-color="#04A2FD"/>
</linearGradient>
<linearGradient id="paint10_linear_17_216" x1="103.901" y1="1527.5" x2="192.14" y2="1476.56" gradientUnits="userSpaceOnUse">
<stop stop-color="#00F09E"/>
<stop offset="0.16" stop-color="#00F09E"/>
<stop offset="0.24" stop-color="#00EAA4"/>
<stop offset="0.36" stop-color="#01DAB8"/>
<stop offset="0.49" stop-color="#02C0D8"/>
<stop offset="0.62" stop-color="#04A2FD"/>
<stop offset="1" stop-color="#04A2FD"/>
</linearGradient>
<linearGradient id="paint11_linear_17_216" x1="1409.59" y1="2022.52" x2="1329.77" y2="2001.14" gradientUnits="userSpaceOnUse">
<stop stop-color="#00F09E"/>
<stop offset="0.14" stop-color="#00E8A6"/>
<stop offset="0.35" stop-color="#01D5BD"/>
<stop offset="0.62" stop-color="#02B6E3"/>
<stop offset="0.78" stop-color="#04A2FD"/>
<stop offset="1" stop-color="#04A2FD"/>
</linearGradient>
<linearGradient id="paint12_linear_17_216" x1="1358.9" y1="2005.04" x2="1421.85" y2="2021.91" gradientUnits="userSpaceOnUse">
<stop stop-color="#00F09E"/>
<stop offset="0.16" stop-color="#00F09E"/>
<stop offset="0.24" stop-color="#00EAA4"/>
<stop offset="0.36" stop-color="#01DAB8"/>
<stop offset="0.49" stop-color="#02C0D8"/>
<stop offset="0.62" stop-color="#04A2FD"/>
<stop offset="1" stop-color="#04A2FD"/>
</linearGradient>
<linearGradient id="paint13_linear_17_216" x1="372.31" y1="540.345" x2="483.724" y2="604.195" gradientUnits="userSpaceOnUse">
<stop stop-color="#00F09E"/>
<stop offset="0.14" stop-color="#00E8A6"/>
<stop offset="0.35" stop-color="#01D5BD"/>
<stop offset="0.62" stop-color="#02B6E3"/>
<stop offset="0.78" stop-color="#04A2FD"/>
<stop offset="1" stop-color="#04A2FD"/>
</linearGradient>
<linearGradient id="paint14_linear_17_216" x1="722.104" y1="33.3463" x2="757.499" y2="53.7813" gradientUnits="userSpaceOnUse">
<stop stop-color="#00F09E"/>
<stop offset="0.16" stop-color="#00F09E"/>
<stop offset="0.24" stop-color="#00EAA4"/>
<stop offset="0.36" stop-color="#01DAB8"/>
<stop offset="0.49" stop-color="#02C0D8"/>
<stop offset="0.62" stop-color="#04A2FD"/>
<stop offset="1" stop-color="#04A2FD"/>
</linearGradient>
<linearGradient id="paint15_linear_17_216" x1="123.104" y1="2567.35" x2="158.499" y2="2587.78" gradientUnits="userSpaceOnUse">
<stop stop-color="#00F09E"/>
<stop offset="0.16" stop-color="#00F09E"/>
<stop offset="0.24" stop-color="#00EAA4"/>
<stop offset="0.36" stop-color="#01DAB8"/>
<stop offset="0.49" stop-color="#02C0D8"/>
<stop offset="0.62" stop-color="#04A2FD"/>
<stop offset="1" stop-color="#04A2FD"/>
</linearGradient>
<linearGradient id="paint16_linear_17_216" x1="1158.1" y1="2831.35" x2="1193.5" y2="2851.78" gradientUnits="userSpaceOnUse">
<stop stop-color="#00F09E"/>
<stop offset="0.16" stop-color="#00F09E"/>
<stop offset="0.24" stop-color="#00EAA4"/>
<stop offset="0.36" stop-color="#01DAB8"/>
<stop offset="0.49" stop-color="#02C0D8"/>
<stop offset="0.62" stop-color="#04A2FD"/>
<stop offset="1" stop-color="#04A2FD"/>
</linearGradient>
<linearGradient id="paint17_linear_17_216" x1="160.996" y1="436.216" x2="183.133" y2="448.996" gradientUnits="userSpaceOnUse">
<stop stop-color="#00F09E"/>
<stop offset="0.16" stop-color="#00F09E"/>
<stop offset="0.24" stop-color="#00EAA4"/>
<stop offset="0.36" stop-color="#01DAB8"/>
<stop offset="0.49" stop-color="#02C0D8"/>
<stop offset="0.62" stop-color="#04A2FD"/>
<stop offset="1" stop-color="#04A2FD"/>
</linearGradient>
<linearGradient id="paint18_linear_17_216" x1="-85.4287" y1="3126.82" x2="218.029" y2="3301.52" gradientUnits="userSpaceOnUse">
<stop stop-color="#00F09E"/>
<stop offset="0.16" stop-color="#00F09E"/>
<stop offset="0.24" stop-color="#00EAA4"/>
<stop offset="0.36" stop-color="#01DAB8"/>
<stop offset="0.49" stop-color="#02C0D8"/>
<stop offset="0.62" stop-color="#04A2FD"/>
<stop offset="1" stop-color="#04A2FD"/>
</linearGradient>
<linearGradient id="paint19_linear_17_216" x1="252.901" y1="3001.5" x2="341.14" y2="2950.56" gradientUnits="userSpaceOnUse">
<stop stop-color="#00F09E"/>
<stop offset="0.16" stop-color="#00F09E"/>
<stop offset="0.24" stop-color="#00EAA4"/>
<stop offset="0.36" stop-color="#01DAB8"/>
<stop offset="0.49" stop-color="#02C0D8"/>
<stop offset="0.62" stop-color="#04A2FD"/>
<stop offset="1" stop-color="#04A2FD"/>
</linearGradient>
<linearGradient id="paint20_linear_17_216" x1="1230.45" y1="1241.2" x2="1266.52" y2="1262.03" gradientUnits="userSpaceOnUse">
<stop stop-color="#00F09E"/>
<stop offset="0.16" stop-color="#00F09E"/>
<stop offset="0.24" stop-color="#00EAA4"/>
<stop offset="0.36" stop-color="#01DAB8"/>
<stop offset="0.49" stop-color="#02C0D8"/>
<stop offset="0.62" stop-color="#04A2FD"/>
<stop offset="1" stop-color="#04A2FD"/>
</linearGradient>
</defs>
</svg>
