<svg width="1440" height="3395" viewBox="0 0 1440 3395" fill="none" xmlns="http://www.w3.org/2000/svg">
<rect width="1440" height="580" fill="url(#paint0_linear_17_216)"/>
<mask id="mask0_17_216" style="mask-type:luminance" maskUnits="userSpaceOnUse" x="1169" y="751" width="233" height="74">
<path d="M1185.14 788C1185.14 776.531 1194.47 767.206 1205.94 767.206H1364.68C1376.15 767.206 1385.48 776.531 1385.48 788C1385.48 799.469 1376.15 808.794 1364.68 808.794H1205.94C1194.47 808.794 1185.14 799.469 1185.14 788ZM1205.93 751.07C1185.56 751.07 1169 767.639 1169 788.008C1169 808.376 1185.57 824.946 1205.93 824.946H1364.68C1385.05 824.946 1401.61 808.376 1401.61 788.008C1401.61 767.639 1385.04 751.07 1364.68 751.07H1205.93Z" fill="white"/>
</mask>
<g mask="url(#mask0_17_216)">
<path d="M1343.46 650.342L1137.01 769.534L1227.15 925.663L1433.6 806.47L1343.46 650.342Z" fill="url(#paint1_linear_17_216)"/>
</g>
<mask id="mask1_17_216" style="mask-type:luminance" maskUnits="userSpaceOnUse" x="1248" y="679" width="75" height="218">
<path d="M1248.82 767.206V860.062C1248.82 880.431 1265.39 897 1285.76 897C1306.12 897 1322.69 880.431 1322.69 860.062V824.938H1306.54V860.062C1306.54 871.524 1297.22 880.857 1285.75 880.857C1274.28 880.857 1264.95 871.531 1264.95 860.062V767.206H1248.81H1248.82ZM1248.82 715.938V751.062H1264.96V715.938C1264.96 704.469 1274.29 695.144 1285.76 695.144C1297.23 695.144 1306.55 704.469 1306.55 715.938V808.794H1322.69V715.938C1322.69 695.569 1306.12 679 1285.76 679C1265.4 679 1248.83 695.569 1248.83 715.938" fill="white"/>
</mask>
<g mask="url(#mask1_17_216)">
<path d="M1304.22 647.02L1154.43 733.503L1267.29 928.987L1417.09 842.503L1304.22 647.02Z" fill="url(#paint2_linear_17_216)"/>
</g>
<path d="M227.73 1178.03H231.73C231.73 1191.86 220.52 1203.06 206.7 1203.06H97.03C83.2 1203.06 72 1191.85 72 1178.03C72 1164.2 83.21 1153 97.03 1153H206.7C220.53 1153 231.73 1164.21 231.73 1178.03H223.73C223.71 1168.63 216.1 1161.02 206.7 1161H97.03C87.63 1161.02 80.02 1168.63 80 1178.03C80.02 1187.43 87.63 1195.04 97.03 1195.06H206.7C216.11 1195.04 223.71 1187.43 223.73 1178.03H227.73Z" fill="url(#paint3_linear_17_216)"/>
<path d="M1475.73 3129.03H1479.73C1479.73 3142.86 1468.52 3154.06 1454.7 3154.06H1345.03C1331.2 3154.06 1320 3142.85 1320 3129.03C1320 3115.2 1331.21 3104 1345.03 3104H1454.7C1468.53 3104 1479.73 3115.21 1479.73 3129.03H1471.73C1471.71 3119.63 1464.1 3112.02 1454.7 3112H1345.03C1335.63 3112.02 1328.02 3119.63 1328 3129.03C1328.02 3138.43 1335.63 3146.04 1345.03 3146.06H1454.7C1464.11 3146.04 1471.71 3138.43 1471.73 3129.03H1475.73Z" fill="url(#paint4_linear_17_216)"/>
<mask id="mask2_17_216" style="mask-type:luminance" maskUnits="userSpaceOnUse" x="144" y="794" width="152" height="43">
<path d="M165.03 794C153.41 794 144 803.42 144 815.03C144 826.64 153.42 836.06 165.03 836.06H274.7C286.31 836.06 295.73 826.64 295.73 815.03C295.73 803.42 286.31 794 274.7 794H165.03Z" fill="white"/>
</mask>
<g mask="url(#mask2_17_216)">
<path d="M181.934 728.285L125.784 825.54L257.801 901.76L313.951 804.505L181.934 728.285Z" fill="url(#paint5_linear_17_216)"/>
</g>
<path d="M-38.96 289.58V290.08C-116.3 290.08 -179 227.38 -179 150.04C-179 72.7 -116.3 10 -38.96 10C38.38 10 101.08 72.7 101.08 150.04C101.08 227.38 38.38 290.08 -38.96 290.08V289.08C37.83 288.94 99.94 226.83 100.08 150.04C99.94 73.25 37.83 11.14 -38.96 11C-115.75 11.14 -177.86 73.25 -178 150.04C-177.86 226.83 -115.75 288.94 -38.96 289.08V289.58Z" fill="url(#paint6_linear_17_216)"/>
<mask id="mask3_17_216" style="mask-type:luminance" maskUnits="userSpaceOnUse" x="1379" y="90" width="427" height="427">
<path d="M1379 303.5C1379 421.416 1474.58 517 1592.5 517C1710.42 517 1806 421.416 1806 303.5C1806 185.584 1710.42 90 1592.5 90C1474.58 90 1379 185.584 1379 303.5Z" fill="white"/>
</mask>
<g mask="url(#mask3_17_216)">
<path d="M1485.83 -94.9201L1194.14 410.296L1699.36 701.983L1991.04 196.767L1485.83 -94.9201Z" fill="url(#paint7_linear_17_216)"/>
</g>
<rect y="1504" width="1440" height="1050" fill="url(#paint8_linear_17_216)"/>
<mask id="mask4_17_216" style="mask-type:luminance" maskUnits="userSpaceOnUse" x="1205" y="2472" width="296" height="95">
<path d="M1225.48 2519.28C1225.48 2504.73 1237.31 2492.9 1251.86 2492.9H1453.25C1467.8 2492.9 1479.63 2504.73 1479.63 2519.28C1479.63 2533.83 1467.8 2545.66 1453.25 2545.66H1251.86C1237.31 2545.66 1225.48 2533.83 1225.48 2519.28ZM1251.85 2472.43C1226.01 2472.43 1205 2493.45 1205 2519.29C1205 2545.13 1226.02 2566.15 1251.85 2566.15H1453.24C1479.08 2566.15 1500.09 2545.13 1500.09 2519.29C1500.09 2493.45 1479.07 2472.43 1453.24 2472.43H1251.85Z" fill="white"/>
</mask>
<g mask="url(#mask4_17_216)">
<path d="M1426.32 2344.64L1164.42 2495.85L1278.78 2693.92L1540.68 2542.71L1426.32 2344.64Z" fill="url(#paint9_linear_17_216)"/>
</g>
<mask id="mask5_17_216" style="mask-type:luminance" maskUnits="userSpaceOnUse" x="1306" y="2381" width="94" height="277">
<path d="M1326.74 2610.7V2427.86C1326.74 2413.31 1338.57 2401.48 1353.12 2401.48C1367.67 2401.48 1379.5 2413.31 1379.5 2427.86V2610.7C1379.5 2625.24 1367.67 2637.08 1353.12 2637.08C1338.57 2637.08 1326.74 2625.25 1326.74 2610.7ZM1306.26 2427.86V2610.7C1306.26 2636.54 1327.28 2657.56 1353.12 2657.56C1378.96 2657.56 1399.97 2636.54 1399.97 2610.7V2427.86C1399.97 2402.02 1378.95 2381 1353.12 2381C1327.29 2381 1306.26 2402.02 1306.26 2427.86Z" fill="white"/>
</mask>
<g mask="url(#mask5_17_216)">
<path d="M1376.55 2340.43L1186.52 2450.14L1329.7 2698.14L1519.73 2588.42L1376.55 2340.43Z" fill="url(#paint10_linear_17_216)"/>
</g>
<path d="M-60.5 2297.79V2314C-207.687 2313.99 -326.991 2194.69 -327 2047.5C-326.991 1900.31 -207.687 1781.01 -60.5 1781C86.687 1781.01 205.991 1900.31 206 2047.5C205.991 2194.69 86.687 2313.99 -60.5 2314V2297.79V2281.58C68.7738 2281.34 173.344 2176.77 173.578 2047.5C173.344 1918.23 68.7738 1813.66 -60.5 1813.42C-189.774 1813.66 -294.344 1918.23 -294.578 2047.5C-294.344 2176.77 -189.774 2281.34 -60.5 2281.58V2297.79Z" fill="url(#paint11_linear_17_216)"/>
<path d="M147.86 1440V1442C135.24 1442.02 125.02 1452.23 125 1464.86V1559.19C125.02 1571.81 135.23 1582.03 147.86 1582.05C160.48 1582.03 170.7 1571.81 170.72 1559.19V1464.86C170.7 1452.24 160.49 1442.02 147.86 1442V1438C162.69 1438 174.72 1450.02 174.72 1464.86V1559.19C174.72 1574.02 162.7 1586.05 147.86 1586.05C133.03 1586.05 121 1574.03 121 1559.19V1464.86C121 1450.03 133.02 1438 147.86 1438V1440Z" fill="url(#paint12_linear_17_216)"/>
<mask id="mask6_17_216" style="mask-type:luminance" maskUnits="userSpaceOnUse" x="1331" y="1988" width="77" height="77">
<path d="M1336.7 1993.71C1329.1 2001.31 1329.1 2013.69 1336.7 2021.29L1380.29 2064.89L1386.32 2058.86L1342.73 2015.26C1338.45 2010.98 1338.45 2004.01 1342.73 1999.73C1347.01 1995.45 1353.98 1995.45 1358.26 1999.73L1401.85 2043.33L1407.88 2037.3L1364.29 1993.7C1360.49 1989.9 1355.49 1988 1350.5 1988C1345.51 1988 1340.51 1989.9 1336.71 1993.7" fill="white"/>
</mask>
<g mask="url(#mask6_17_216)">
<path d="M1334.37 1968.31L1309.87 2059.73L1402.6 2084.58L1427.1 1993.15L1334.37 1968.31Z" fill="url(#paint13_linear_17_216)"/>
</g>
<mask id="mask7_17_216" style="mask-type:luminance" maskUnits="userSpaceOnUse" x="1352" y="1990" width="75" height="69">
<path d="M1352.71 2037.3L1358.74 2043.33L1380.3 2021.77L1374.27 2015.74L1352.72 2037.29L1352.71 2037.3ZM1393.41 1996.6L1380.29 2009.72L1386.32 2015.75L1399.44 2002.63C1403.72 1998.35 1410.69 1998.35 1414.97 2002.63C1419.25 2006.91 1419.25 2013.88 1414.97 2018.16L1380.3 2052.83L1386.33 2058.86L1421 2024.19C1428.6 2016.58 1428.6 2004.21 1421 1996.61C1417.2 1992.81 1412.2 1990.91 1407.21 1990.91C1402.22 1990.91 1397.22 1992.81 1393.42 1996.61" fill="white"/>
</mask>
<g mask="url(#mask7_17_216)">
<path d="M1357.79 1971.93L1335.71 2054.3L1423.51 2077.83L1445.58 1995.45L1357.79 1971.93Z" fill="url(#paint14_linear_17_216)"/>
</g>
<path d="M495.31 583.5H496C496 600.897 482.001 615 464.733 615H389.267C371.999 615 358 600.897 358 583.5C358 566.103 371.999 552 389.267 552H464.733C482.001 552 496 566.103 496 583.5H494.62C494.59 566.87 481.24 553.421 464.733 553.39H389.267C372.76 553.421 359.41 566.87 359.38 583.5C359.41 600.13 372.76 613.579 389.267 613.61H464.733C481.24 613.579 494.59 600.13 494.62 583.5H495.31Z" fill="url(#paint15_linear_17_216)"/>
<path d="M740.93 69.36V71.86C729.92 71.86 721 62.94 721 51.93C721 40.92 729.92 32 740.93 32C751.94 32 760.86 40.92 760.86 51.93C760.86 62.94 751.94 71.86 740.93 71.86V66.86C749.18 66.85 755.85 60.17 755.86 51.93C755.85 43.68 749.17 37.01 740.93 37C732.68 37.01 726.01 43.69 726 51.93C726.01 60.18 732.69 66.85 740.93 66.86V69.36Z" fill="url(#paint16_linear_17_216)"/>
<path d="M141.93 2603.36V2605.86C130.92 2605.86 122 2596.94 122 2585.93C122 2574.92 130.92 2566 141.93 2566C152.94 2566 161.86 2574.92 161.86 2585.93C161.86 2596.94 152.94 2605.86 141.93 2605.86V2600.86C150.18 2600.85 156.85 2594.17 156.86 2585.93C156.85 2577.68 150.17 2571.01 141.93 2571C133.68 2571.01 127.01 2577.69 127 2585.93C127.01 2594.18 133.69 2600.85 141.93 2600.86V2603.36Z" fill="url(#paint17_linear_17_216)"/>
<path d="M1176.93 2867.36V2869.86C1165.92 2869.86 1157 2860.94 1157 2849.93C1157 2838.92 1165.92 2830 1176.93 2830C1187.94 2830 1196.86 2838.92 1196.86 2849.93C1196.86 2860.94 1187.94 2869.86 1176.93 2869.86V2864.86C1185.18 2864.85 1191.85 2858.17 1191.86 2849.93C1191.85 2841.68 1185.17 2835.01 1176.93 2835C1168.68 2835.01 1162.01 2841.69 1162 2849.93C1162.01 2858.18 1168.69 2864.85 1176.93 2864.86V2867.36Z" fill="url(#paint18_linear_17_216)"/>
<path d="M173.5 461.878V463C166.599 463 161 457.406 161 450.5C161 443.594 166.594 438 173.5 438C180.401 438 186 443.594 186 450.5C186 457.401 180.406 463 173.5 463V460.756C179.161 460.745 183.745 456.167 183.756 450.5C183.745 444.839 179.166 440.255 173.5 440.244C167.839 440.255 163.255 444.833 163.244 450.5C163.255 456.161 167.839 460.745 173.5 460.756V461.878Z" fill="url(#paint19_linear_17_216)"/>
<path d="M69.5 3393.31V3395C-26.878 3395 -105 3316.65 -105 3220C-105 3123.35 -26.8696 3045 69.5 3045C165.878 3045 244 3123.35 244 3220C244 3316.65 165.87 3395 69.5 3395V3391.61C164.013 3391.44 240.455 3314.78 240.624 3220C240.455 3125.22 164.004 3048.56 69.5 3048.39C-25.0127 3048.56 -101.455 3125.22 -101.624 3220C-101.455 3314.78 -25.0043 3391.44 69.5 3391.61V3393.31Z" fill="url(#paint20_linear_17_216)"/>
<path d="M296.86 2914V2916C284.24 2916.02 274.02 2926.23 274 2938.86V3033.19C274.02 3045.81 284.23 3056.03 296.86 3056.05C309.48 3056.03 319.7 3045.81 319.72 3033.19V2938.86C319.7 2926.24 309.49 2916.02 296.86 2916V2912C311.69 2912 323.72 2924.02 323.72 2938.86V3033.19C323.72 3048.02 311.7 3060.05 296.86 3060.05C282.03 3060.05 270 3048.03 270 3033.19V2938.86C270 2924.03 282.02 2912 296.86 2912V2914Z" fill="url(#paint21_linear_17_216)"/>
<path d="M1249.32 1279.64V1280.64C1238.1 1280.64 1229 1271.54 1229 1260.32C1229 1249.1 1238.1 1240 1249.32 1240C1260.54 1240 1269.64 1249.1 1269.64 1260.32C1269.64 1271.54 1260.54 1280.64 1249.32 1280.64V1278.64C1259.44 1278.62 1267.62 1270.44 1267.64 1260.32C1267.62 1250.2 1259.44 1242.02 1249.32 1242C1239.2 1242.02 1231.02 1250.2 1231 1260.32C1231.02 1270.44 1239.2 1278.62 1249.32 1278.64V1279.64Z" fill="url(#paint22_linear_17_216)"/>
<defs>
<linearGradient id="paint0_linear_17_216" x1="-171" y1="-749" x2="1769.09" y2="-904.439" gradientUnits="userSpaceOnUse">
<stop stop-color="#3B3D40"/>
<stop offset="1" stop-color="#04A2FD"/>
</linearGradient>
<linearGradient id="paint1_linear_17_216" x1="1375.81" y1="733.709" x2="1192.79" y2="839.375" gradientUnits="userSpaceOnUse">
<stop stop-color="#00F09E"/>
<stop offset="0.14" stop-color="#00E8A6"/>
<stop offset="0.35" stop-color="#01D5BD"/>
<stop offset="0.62" stop-color="#02B6E3"/>
<stop offset="0.78" stop-color="#04A2FD"/>
<stop offset="1" stop-color="#04A2FD"/>
</linearGradient>
<linearGradient id="paint2_linear_17_216" x1="1223.42" y1="825.854" x2="1349.78" y2="752.897" gradientUnits="userSpaceOnUse">
<stop stop-color="#00F09E"/>
<stop offset="0.16" stop-color="#00F09E"/>
<stop offset="0.24" stop-color="#00EAA4"/>
<stop offset="0.36" stop-color="#01DAB8"/>
<stop offset="0.49" stop-color="#02C0D8"/>
<stop offset="0.62" stop-color="#04A2FD"/>
<stop offset="1" stop-color="#04A2FD"/>
</linearGradient>
<linearGradient id="paint3_linear_17_216" x1="88.5146" y1="1141.87" x2="214.998" y2="1214.89" gradientUnits="userSpaceOnUse">
<stop stop-color="#00F09E"/>
<stop offset="0.14" stop-color="#00E8A6"/>
<stop offset="0.35" stop-color="#01D5BD"/>
<stop offset="0.62" stop-color="#02B6E3"/>
<stop offset="0.78" stop-color="#04A2FD"/>
<stop offset="1" stop-color="#04A2FD"/>
</linearGradient>
<linearGradient id="paint4_linear_17_216" x1="1336.51" y1="3092.87" x2="1463" y2="3165.89" gradientUnits="userSpaceOnUse">
<stop stop-color="#00F09E"/>
<stop offset="0.14" stop-color="#00E8A6"/>
<stop offset="0.35" stop-color="#01D5BD"/>
<stop offset="0.62" stop-color="#02B6E3"/>
<stop offset="0.78" stop-color="#04A2FD"/>
<stop offset="1" stop-color="#04A2FD"/>
</linearGradient>
<linearGradient id="paint5_linear_17_216" x1="160.379" y1="781.327" x2="279.067" y2="849.852" gradientUnits="userSpaceOnUse">
<stop stop-color="#00F09E"/>
<stop offset="0.14" stop-color="#00E8A6"/>
<stop offset="0.35" stop-color="#01D5BD"/>
<stop offset="0.62" stop-color="#02B6E3"/>
<stop offset="0.78" stop-color="#04A2FD"/>
<stop offset="1" stop-color="#04A2FD"/>
</linearGradient>
<linearGradient id="paint6_linear_17_216" x1="-163.482" y1="84.1936" x2="79.9835" y2="224.759" gradientUnits="userSpaceOnUse">
<stop stop-color="#00F09E"/>
<stop offset="0.16" stop-color="#00F09E"/>
<stop offset="0.24" stop-color="#00EAA4"/>
<stop offset="0.36" stop-color="#01DAB8"/>
<stop offset="0.49" stop-color="#02C0D8"/>
<stop offset="0.62" stop-color="#04A2FD"/>
<stop offset="1" stop-color="#04A2FD"/>
</linearGradient>
<linearGradient id="paint7_linear_17_216" x1="1396.42" y1="213.435" x2="1766.3" y2="426.986" gradientUnits="userSpaceOnUse">
<stop stop-color="#00F09E"/>
<stop offset="0.16" stop-color="#00F09E"/>
<stop offset="0.24" stop-color="#00EAA4"/>
<stop offset="0.36" stop-color="#01DAB8"/>
<stop offset="0.49" stop-color="#02C0D8"/>
<stop offset="0.62" stop-color="#04A2FD"/>
<stop offset="1" stop-color="#04A2FD"/>
</linearGradient>
<linearGradient id="paint8_linear_17_216" x1="123" y1="1537" x2="1906" y2="3135" gradientUnits="userSpaceOnUse">
<stop/>
<stop offset="1" stop-color="#1387CB"/>
</linearGradient>
<linearGradient id="paint9_linear_17_216" x1="1467.37" y1="2450.41" x2="1235.19" y2="2584.46" gradientUnits="userSpaceOnUse">
<stop stop-color="#00F09E"/>
<stop offset="0.14" stop-color="#00E8A6"/>
<stop offset="0.35" stop-color="#01D5BD"/>
<stop offset="0.62" stop-color="#02B6E3"/>
<stop offset="0.78" stop-color="#04A2FD"/>
<stop offset="1" stop-color="#04A2FD"/>
</linearGradient>
<linearGradient id="paint10_linear_17_216" x1="1274.04" y1="2567.3" x2="1434.35" y2="2474.75" gradientUnits="userSpaceOnUse">
<stop stop-color="#00F09E"/>
<stop offset="0.16" stop-color="#00F09E"/>
<stop offset="0.24" stop-color="#00EAA4"/>
<stop offset="0.36" stop-color="#01DAB8"/>
<stop offset="0.49" stop-color="#02C0D8"/>
<stop offset="0.62" stop-color="#04A2FD"/>
<stop offset="1" stop-color="#04A2FD"/>
</linearGradient>
<linearGradient id="paint11_linear_17_216" x1="-290.446" y1="1914.26" x2="171.996" y2="2181.25" gradientUnits="userSpaceOnUse">
<stop stop-color="#00F09E"/>
<stop offset="0.16" stop-color="#00F09E"/>
<stop offset="0.24" stop-color="#00EAA4"/>
<stop offset="0.36" stop-color="#01DAB8"/>
<stop offset="0.49" stop-color="#02C0D8"/>
<stop offset="0.62" stop-color="#04A2FD"/>
<stop offset="1" stop-color="#04A2FD"/>
</linearGradient>
<linearGradient id="paint12_linear_17_216" x1="103.901" y1="1537.5" x2="192.14" y2="1486.56" gradientUnits="userSpaceOnUse">
<stop stop-color="#00F09E"/>
<stop offset="0.16" stop-color="#00F09E"/>
<stop offset="0.24" stop-color="#00EAA4"/>
<stop offset="0.36" stop-color="#01DAB8"/>
<stop offset="0.49" stop-color="#02C0D8"/>
<stop offset="0.62" stop-color="#04A2FD"/>
<stop offset="1" stop-color="#04A2FD"/>
</linearGradient>
<linearGradient id="paint13_linear_17_216" x1="1409.59" y1="2032.52" x2="1329.77" y2="2011.14" gradientUnits="userSpaceOnUse">
<stop stop-color="#00F09E"/>
<stop offset="0.14" stop-color="#00E8A6"/>
<stop offset="0.35" stop-color="#01D5BD"/>
<stop offset="0.62" stop-color="#02B6E3"/>
<stop offset="0.78" stop-color="#04A2FD"/>
<stop offset="1" stop-color="#04A2FD"/>
</linearGradient>
<linearGradient id="paint14_linear_17_216" x1="1358.9" y1="2015.04" x2="1421.85" y2="2031.91" gradientUnits="userSpaceOnUse">
<stop stop-color="#00F09E"/>
<stop offset="0.16" stop-color="#00F09E"/>
<stop offset="0.24" stop-color="#00EAA4"/>
<stop offset="0.36" stop-color="#01DAB8"/>
<stop offset="0.49" stop-color="#02C0D8"/>
<stop offset="0.62" stop-color="#04A2FD"/>
<stop offset="1" stop-color="#04A2FD"/>
</linearGradient>
<linearGradient id="paint15_linear_17_216" x1="372.31" y1="550.345" x2="483.724" y2="614.195" gradientUnits="userSpaceOnUse">
<stop stop-color="#00F09E"/>
<stop offset="0.14" stop-color="#00E8A6"/>
<stop offset="0.35" stop-color="#01D5BD"/>
<stop offset="0.62" stop-color="#02B6E3"/>
<stop offset="0.78" stop-color="#04A2FD"/>
<stop offset="1" stop-color="#04A2FD"/>
</linearGradient>
<linearGradient id="paint16_linear_17_216" x1="722.104" y1="43.3463" x2="757.499" y2="63.7813" gradientUnits="userSpaceOnUse">
<stop stop-color="#00F09E"/>
<stop offset="0.16" stop-color="#00F09E"/>
<stop offset="0.24" stop-color="#00EAA4"/>
<stop offset="0.36" stop-color="#01DAB8"/>
<stop offset="0.49" stop-color="#02C0D8"/>
<stop offset="0.62" stop-color="#04A2FD"/>
<stop offset="1" stop-color="#04A2FD"/>
</linearGradient>
<linearGradient id="paint17_linear_17_216" x1="123.104" y1="2577.35" x2="158.499" y2="2597.78" gradientUnits="userSpaceOnUse">
<stop stop-color="#00F09E"/>
<stop offset="0.16" stop-color="#00F09E"/>
<stop offset="0.24" stop-color="#00EAA4"/>
<stop offset="0.36" stop-color="#01DAB8"/>
<stop offset="0.49" stop-color="#02C0D8"/>
<stop offset="0.62" stop-color="#04A2FD"/>
<stop offset="1" stop-color="#04A2FD"/>
</linearGradient>
<linearGradient id="paint18_linear_17_216" x1="1158.1" y1="2841.35" x2="1193.5" y2="2861.78" gradientUnits="userSpaceOnUse">
<stop stop-color="#00F09E"/>
<stop offset="0.16" stop-color="#00F09E"/>
<stop offset="0.24" stop-color="#00EAA4"/>
<stop offset="0.36" stop-color="#01DAB8"/>
<stop offset="0.49" stop-color="#02C0D8"/>
<stop offset="0.62" stop-color="#04A2FD"/>
<stop offset="1" stop-color="#04A2FD"/>
</linearGradient>
<linearGradient id="paint19_linear_17_216" x1="160.996" y1="446.216" x2="183.133" y2="458.996" gradientUnits="userSpaceOnUse">
<stop stop-color="#00F09E"/>
<stop offset="0.16" stop-color="#00F09E"/>
<stop offset="0.24" stop-color="#00EAA4"/>
<stop offset="0.36" stop-color="#01DAB8"/>
<stop offset="0.49" stop-color="#02C0D8"/>
<stop offset="0.62" stop-color="#04A2FD"/>
<stop offset="1" stop-color="#04A2FD"/>
</linearGradient>
<linearGradient id="paint20_linear_17_216" x1="-85.4287" y1="3136.82" x2="218.029" y2="3311.52" gradientUnits="userSpaceOnUse">
<stop stop-color="#00F09E"/>
<stop offset="0.16" stop-color="#00F09E"/>
<stop offset="0.24" stop-color="#00EAA4"/>
<stop offset="0.36" stop-color="#01DAB8"/>
<stop offset="0.49" stop-color="#02C0D8"/>
<stop offset="0.62" stop-color="#04A2FD"/>
<stop offset="1" stop-color="#04A2FD"/>
</linearGradient>
<linearGradient id="paint21_linear_17_216" x1="252.901" y1="3011.5" x2="341.14" y2="2960.56" gradientUnits="userSpaceOnUse">
<stop stop-color="#00F09E"/>
<stop offset="0.16" stop-color="#00F09E"/>
<stop offset="0.24" stop-color="#00EAA4"/>
<stop offset="0.36" stop-color="#01DAB8"/>
<stop offset="0.49" stop-color="#02C0D8"/>
<stop offset="0.62" stop-color="#04A2FD"/>
<stop offset="1" stop-color="#04A2FD"/>
</linearGradient>
<linearGradient id="paint22_linear_17_216" x1="1230.45" y1="1251.2" x2="1266.52" y2="1272.03" gradientUnits="userSpaceOnUse">
<stop stop-color="#00F09E"/>
<stop offset="0.16" stop-color="#00F09E"/>
<stop offset="0.24" stop-color="#00EAA4"/>
<stop offset="0.36" stop-color="#01DAB8"/>
<stop offset="0.49" stop-color="#02C0D8"/>
<stop offset="0.62" stop-color="#04A2FD"/>
<stop offset="1" stop-color="#04A2FD"/>
</linearGradient>
</defs>
</svg>
