<svg width="233" height="218" viewBox="0 0 233 218" fill="none" xmlns="http://www.w3.org/2000/svg">
<mask id="mask0_17_203" style="mask-type:luminance" maskUnits="userSpaceOnUse" x="0" y="72" width="233" height="74">
<path d="M16.1435 109C16.1435 97.5308 25.4685 88.2058 36.9376 88.2058H195.684C207.154 88.2058 216.479 97.5308 216.479 109C216.479 120.469 207.154 129.794 195.684 129.794H36.9376C25.4685 129.794 16.1435 120.469 16.1435 109ZM36.9298 72.0702C16.5612 72.0702 0 88.6393 0 109.008C0 129.376 16.5691 145.946 36.9298 145.946H195.677C216.045 145.946 232.606 129.376 232.606 109.008C232.606 88.6393 216.037 72.0702 195.677 72.0702H36.9298Z" fill="white"/>
</mask>
<g mask="url(#mask0_17_203)">
<path d="M174.46 -28.6584L-31.9865 90.5338L58.1544 246.663L264.601 127.47L174.46 -28.6584Z" fill="url(#paint0_linear_17_203)"/>
</g>
<mask id="mask1_17_203" style="mask-type:luminance" maskUnits="userSpaceOnUse" x="79" y="0" width="75" height="218">
<path d="M79.8186 88.2058V181.062C79.8186 201.431 96.3878 218 116.756 218C137.125 218 153.686 201.431 153.686 181.062V145.938H137.543V181.062C137.543 192.524 128.218 201.857 116.748 201.857C105.279 201.857 95.9543 192.531 95.9543 181.062V88.2058H79.8108H79.8186ZM79.8186 36.9377V72.0624H95.9621V36.9377C95.9621 25.4686 105.287 16.1435 116.756 16.1435C128.225 16.1435 137.551 25.4686 137.551 36.9377V129.794H153.694V36.9377C153.694 16.5692 137.125 0 116.764 0C96.4035 0 79.8265 16.5692 79.8265 36.9377" fill="white"/>
</mask>
<g mask="url(#mask1_17_203)">
<path d="M135.224 -31.98L-14.5702 54.5035L98.2922 249.987L248.086 163.503L135.224 -31.98Z" fill="url(#paint1_linear_17_203)"/>
</g>
<defs>
<linearGradient id="paint0_linear_17_203" x1="206.812" y1="54.7092" x2="23.7941" y2="160.375" gradientUnits="userSpaceOnUse">
<stop stop-color="#00F09E"/>
<stop offset="0.14" stop-color="#00E8A6"/>
<stop offset="0.35" stop-color="#01D5BD"/>
<stop offset="0.62" stop-color="#02B6E3"/>
<stop offset="0.78" stop-color="#04A2FD"/>
<stop offset="1" stop-color="#04A2FD"/>
</linearGradient>
<linearGradient id="paint1_linear_17_203" x1="54.4197" y1="146.854" x2="180.785" y2="73.8966" gradientUnits="userSpaceOnUse">
<stop stop-color="#00F09E"/>
<stop offset="0.16" stop-color="#00F09E"/>
<stop offset="0.24" stop-color="#00EAA4"/>
<stop offset="0.36" stop-color="#01DAB8"/>
<stop offset="0.49" stop-color="#02C0D8"/>
<stop offset="0.62" stop-color="#04A2FD"/>
<stop offset="1" stop-color="#04A2FD"/>
</linearGradient>
</defs>
</svg>
