<svg width="244" height="66" viewBox="0 0 244 66" fill="none" xmlns="http://www.w3.org/2000/svg">
<g clip-path="url(#clip0_1_4)">
<path d="M101.962 17.6236V48.3608H96.4506V33.3592L98.935 35.2353H81.9453L84.4296 33.4023V48.3647H78.9184V17.6236H84.4296V32.7743L81.9453 30.8589H98.935L96.4506 32.7547V17.6275H101.962V17.6236Z" fill="#029AF2"/>
<path d="M108.472 39.0662V35.1686H123.979L123.354 36.2127V35.671C123.354 34.7133 123.138 33.8145 122.706 32.9706C122.273 32.1306 121.621 31.4477 120.744 30.9296C119.867 30.4075 118.755 30.1485 117.407 30.1485C116.058 30.1485 114.914 30.4311 113.932 30.9924C112.949 31.5536 112.194 32.3661 111.656 33.422C111.121 34.4778 110.854 35.7417 110.854 37.2136C110.854 38.6855 111.109 40.0318 111.624 41.119C112.139 42.2102 112.894 43.0423 113.888 43.6193C114.883 44.1963 116.098 44.4828 117.528 44.4828C118.503 44.4828 119.345 44.3925 120.052 44.212C120.764 44.0314 121.342 43.7842 121.794 43.4741C122.246 43.1601 122.588 42.8264 122.816 42.4614C123.044 42.1003 123.181 41.7392 123.224 41.3781H128.692C128.61 42.3083 128.299 43.215 127.765 44.0982C127.23 44.9813 126.479 45.7781 125.52 46.4964C124.561 47.2107 123.394 47.7799 122.026 48.2038C120.654 48.6277 119.093 48.8396 117.34 48.8396C114.962 48.8396 112.882 48.3529 111.101 47.3795C109.321 46.4061 107.933 45.0519 106.938 43.3171C105.944 41.5822 105.445 39.5922 105.445 37.3588C105.445 35.1255 105.948 33.0609 106.958 31.3378C107.968 29.6147 109.368 28.2723 111.164 27.3067C112.961 26.3412 115.017 25.8584 117.34 25.8584C119.663 25.8584 121.801 26.3451 123.547 27.3185C125.292 28.2919 126.641 29.6421 127.584 31.3731C128.531 33.104 129.003 35.1137 129.003 37.4059C129.003 37.6964 128.995 38.0104 128.983 38.344C128.968 38.6776 128.948 38.921 128.92 39.0741H108.468L108.472 39.0662Z" fill="#029AF2"/>
<path d="M140.171 48.82C138.516 48.82 137.062 48.5609 135.808 48.0389C134.554 47.5169 133.575 46.7633 132.863 45.7781C132.152 44.7929 131.798 43.6036 131.798 42.2141C131.798 40.699 132.211 39.4548 133.04 38.4735C133.87 37.4923 134.986 36.7386 136.389 36.2009C137.793 35.6671 139.353 35.3217 141.063 35.1686C143.595 34.9174 145.364 34.678 146.374 34.4503C147.384 34.2227 147.887 33.8498 147.887 33.3356V33.2924C147.887 32.319 147.451 31.5693 146.575 31.0434C145.698 30.5174 144.46 30.2505 142.86 30.2505C141.177 30.2505 139.884 30.5449 138.988 31.1376C138.091 31.7263 137.643 32.6605 137.643 33.9401H132.219C132.219 32.2052 132.682 30.7333 133.606 29.5322C134.53 28.3311 135.8 27.4166 137.415 26.7925C139.031 26.1684 140.859 25.8544 142.903 25.8544C144.81 25.8544 146.555 26.141 148.143 26.7101C149.727 27.2792 151.001 28.1427 151.964 29.2928C152.927 30.4428 153.403 31.8833 153.403 33.6064V43.6939C153.403 44.2237 153.418 44.7379 153.454 45.2482C153.489 45.7545 153.56 46.2098 153.674 46.6141C153.811 47.0576 153.981 47.4344 154.173 47.7406C154.37 48.0468 154.519 48.2548 154.633 48.3647H149.208C149.11 48.2666 148.976 48.0782 148.799 47.7916C148.627 47.509 148.469 47.1754 148.332 46.8025C148.194 46.3865 148.088 45.939 148.017 45.4601C147.946 44.9813 147.911 44.4475 147.911 43.8666L148.996 44.6163C148.579 45.4641 147.943 46.202 147.086 46.8339C146.229 47.4659 145.21 47.9565 144.027 48.3019C142.844 48.6473 141.559 48.8239 140.167 48.8239L140.171 48.82ZM141.508 44.5063C142.647 44.5063 143.705 44.3101 144.68 43.9215C145.655 43.5329 146.441 42.9324 147.038 42.1199C147.636 41.3074 147.935 40.2634 147.935 38.9838V36.0243L149.271 37.5237C148.379 37.8573 147.31 38.132 146.056 38.3479C144.802 38.5638 143.536 38.7326 142.258 38.8582C140.615 39.0113 139.381 39.2939 138.555 39.7138C137.726 40.1299 137.313 40.8129 137.313 41.7549C137.313 42.6969 137.659 43.3602 138.355 43.8195C139.051 44.2787 140.1 44.5063 141.508 44.5063Z" fill="#029AF2"/>
<path d="M163.214 15.7906V48.3608H157.809V15.7906H163.214Z" fill="#029AF2"/>
<path d="M178.781 48.7768C177.987 48.7768 177.181 48.7022 176.36 48.5492C175.538 48.3961 174.787 48.1135 174.107 47.6935C173.427 47.2774 172.877 46.6651 172.46 45.8605C172.043 45.0558 171.835 43.9921 171.835 42.6733V30.6077H166.595V26.2312H168.726C169.449 26.2312 170.019 26.1998 170.436 26.137C170.852 26.0742 171.159 25.9251 171.355 25.6896C171.552 25.4541 171.678 25.0812 171.741 24.5748C171.804 24.0685 171.835 23.362 171.835 22.4592V18.9384H177.346V26.2312H183.942V30.6077H177.346V41.0052C177.346 42.0335 177.472 42.8617 177.724 43.4858C177.975 44.1099 178.565 44.4239 179.497 44.4239C179.941 44.4239 180.361 44.3807 180.758 44.2983C181.155 44.2159 181.45 44.1335 181.647 44.0471V48.3411C181.383 48.4393 180.998 48.5374 180.499 48.6316C180 48.7297 179.426 48.7768 178.789 48.7768H178.781Z" fill="#029AF2"/>
<path d="M187.421 48.3608V15.7906H192.909V48.3608H187.421ZM203.114 48.3608V36.3383C203.114 34.5053 202.756 33.0962 202.041 32.1188C201.325 31.1376 200.103 30.6509 198.377 30.6509C197.221 30.6509 196.239 30.8785 195.425 31.3299C194.611 31.7813 193.99 32.4093 193.558 33.2139C193.125 34.0186 192.909 34.9488 192.909 36.0047L190.904 34.941C190.904 33.1786 191.305 31.6086 192.103 30.2427C192.901 28.8728 194.014 27.8013 195.433 27.0241C196.852 26.2469 198.479 25.8584 200.315 25.8584C203 25.8584 205.052 26.6551 206.471 28.2448C207.89 29.8344 208.602 32.0482 208.602 34.8821V48.3647H203.114V48.3608Z" fill="#029AF2"/>
<path d="M215.013 22.1452C214.121 22.1452 213.346 21.9058 212.686 21.427C212.025 20.9481 211.695 20.2769 211.695 19.4173C211.695 18.5577 212.025 17.9101 212.686 17.4391C213.346 16.9681 214.121 16.7326 215.013 16.7326C215.905 16.7326 216.656 16.9681 217.309 17.4391C217.961 17.9101 218.291 18.5734 218.291 19.4173C218.291 20.2612 217.965 20.9481 217.309 21.427C216.656 21.9058 215.89 22.1452 215.013 22.1452ZM212.277 48.3608V26.2312H217.702V48.3608H212.277Z" fill="#029AF2"/>
<path d="M229.538 48.82C227.883 48.82 226.429 48.5609 225.175 48.0389C223.921 47.5169 222.942 46.7633 222.23 45.7781C221.519 44.7929 221.165 43.6036 221.165 42.2141C221.165 40.699 221.578 39.4548 222.407 38.4735C223.237 37.4923 224.353 36.7386 225.756 36.2009C227.16 35.6671 228.72 35.3217 230.43 35.1686C232.962 34.9174 234.731 34.678 235.741 34.4503C236.751 34.2227 237.254 33.8498 237.254 33.3356V33.2924C237.254 32.319 236.818 31.5693 235.941 31.0434C235.065 30.5174 233.827 30.2505 232.227 30.2505C230.544 30.2505 229.251 30.5449 228.355 31.1376C227.458 31.7263 227.01 32.6605 227.01 33.9401H221.586C221.586 32.2052 222.049 30.7333 222.973 29.5322C223.897 28.3311 225.167 27.4166 226.782 26.7925C228.398 26.1684 230.226 25.8544 232.27 25.8544C234.176 25.8544 235.922 26.141 237.51 26.7101C239.094 27.2792 240.368 28.1427 241.331 29.2928C242.294 30.4428 242.77 31.8833 242.77 33.6064V43.6939C242.77 44.2237 242.785 44.7379 242.821 45.2482C242.856 45.7545 242.927 46.2098 243.041 46.6141C243.178 47.0576 243.347 47.4344 243.54 47.7406C243.737 48.0468 243.886 48.2548 244 48.3647H238.575C238.477 48.2666 238.343 48.0782 238.166 47.7916C237.993 47.509 237.836 47.1754 237.699 46.8025C237.561 46.3865 237.455 45.939 237.384 45.4601C237.313 44.9813 237.278 44.4475 237.278 43.8666L238.363 44.6163C237.946 45.4641 237.309 46.202 236.453 46.8339C235.596 47.4659 234.577 47.9565 233.394 48.3019C232.211 48.6473 230.926 48.8239 229.534 48.8239L229.538 48.82ZM230.871 44.5063C232.01 44.5063 233.068 44.3101 234.043 43.9215C235.018 43.5329 235.804 42.9324 236.401 42.1199C236.999 41.3074 237.298 40.2634 237.298 38.9838V36.0243L238.634 37.5237C237.742 37.8573 236.673 38.132 235.419 38.3479C234.165 38.5638 232.899 38.7326 231.621 38.8582C229.978 39.0113 228.744 39.2939 227.918 39.7138C227.089 40.1299 226.676 40.8129 226.676 41.7549C226.676 42.6969 227.022 43.3602 227.718 43.8195C228.414 44.2787 229.463 44.5063 230.871 44.5063Z" fill="#029AF2"/>
<mask id="mask0_1_4" style="mask-type:luminance" maskUnits="userSpaceOnUse" x="23" y="6" width="15" height="54">
<path d="M26.4241 52.906V13.094C26.4241 10.9156 28.1969 9.14147 30.3826 9.14147C32.5682 9.14147 34.3411 10.9156 34.3411 13.094V52.906C34.3411 55.0844 32.5643 56.8585 30.3826 56.8585C28.2009 56.8585 26.4241 55.0844 26.4241 52.906ZM23.35 13.094V52.906C23.35 56.7761 26.5027 59.924 30.3786 59.924C34.2546 59.924 37.4072 56.7761 37.4072 52.906V13.094C37.4072 9.22389 34.2546 6.07599 30.3786 6.07599C26.5027 6.07599 23.35 9.22389 23.35 13.094Z" fill="white"/>
</mask>
<g mask="url(#mask0_1_4)">
<path d="M26.8681 0.000279686L0.00183105 46.4641L33.8953 66.003L60.7616 19.5393L26.8681 0.000279686Z" fill="url(#paint0_linear_1_4)"/>
</g>
<mask id="mask1_1_4" style="mask-type:luminance" maskUnits="userSpaceOnUse" x="50" y="6" width="15" height="54">
<path d="M53.8505 52.906V13.094C53.8505 10.9156 55.6273 9.14147 57.809 9.14147C59.9907 9.14147 61.7675 10.9156 61.7675 13.094V52.906C61.7675 55.0844 59.9907 56.8585 57.809 56.8585C55.6273 56.8585 53.8505 55.0844 53.8505 52.906ZM50.7765 13.094V52.906C50.7765 56.7761 53.9291 59.924 57.8051 59.924C61.681 59.924 64.8337 56.7761 64.8337 52.906V13.094C64.8337 9.22389 61.681 6.07599 57.8051 6.07599C53.9291 6.07599 50.7765 9.22389 50.7765 13.094Z" fill="white"/>
</mask>
<g mask="url(#mask1_1_4)">
<path d="M54.2926 -0.000757912L27.4263 46.463L61.3198 66.002L88.1861 19.5382L54.2926 -0.000757912Z" fill="url(#paint1_linear_1_4)"/>
</g>
<mask id="mask2_1_4" style="mask-type:luminance" maskUnits="userSpaceOnUse" x="23" y="25" width="42" height="16">
<path d="M26.4241 33.002C26.4241 30.8236 28.1969 29.0494 30.3826 29.0494H57.809C59.9907 29.0494 61.7675 30.8196 61.7675 33.002C61.7675 35.1843 59.9907 36.9545 57.809 36.9545H30.3826C28.2009 36.9545 26.4241 35.1804 26.4241 33.002ZM30.3786 25.9839C26.5027 25.9839 23.35 29.1319 23.35 33.002C23.35 36.8721 26.5027 40.02 30.3786 40.02H57.8051C61.681 40.02 64.8337 36.8721 64.8337 33.002C64.8337 29.1319 61.681 25.9839 57.8051 25.9839H30.3786Z" fill="white"/>
</mask>
<g mask="url(#mask2_1_4)">
<path d="M33.7203 8.04881L17.2632 36.5104L54.4624 57.955L70.9194 29.4934L33.7203 8.04881Z" fill="url(#paint2_linear_1_4)"/>
</g>
<mask id="mask3_1_4" style="mask-type:luminance" maskUnits="userSpaceOnUse" x="23" y="6" width="15" height="54">
<path d="M26.4241 52.906V13.094C26.4241 10.9156 28.1969 9.14147 30.3826 9.14147C32.5682 9.14147 34.3411 10.9156 34.3411 13.094V52.906C34.3411 55.0844 32.5643 56.8585 30.3826 56.8585C28.2009 56.8585 26.4241 55.0844 26.4241 52.906ZM23.35 13.094V52.906C23.35 56.7761 26.5027 59.924 30.3786 59.924C34.2546 59.924 37.4072 56.7761 37.4072 52.906V13.094C37.4072 9.22389 34.2546 6.07599 30.3786 6.07599C26.5027 6.07599 23.35 9.22389 23.35 13.094Z" fill="white"/>
</mask>
<g mask="url(#mask3_1_4)">
<path d="M26.8681 0.000279686L0.00183105 46.4641L33.8953 66.003L60.7616 19.5393L26.8681 0.000279686Z" fill="url(#paint3_linear_1_4)"/>
</g>
<mask id="mask4_1_4" style="mask-type:luminance" maskUnits="userSpaceOnUse" x="50" y="6" width="15" height="54">
<path d="M53.8505 52.906V13.094C53.8505 10.9156 55.6273 9.14147 57.809 9.14147C59.9907 9.14147 61.7675 10.9156 61.7675 13.094V52.906C61.7675 55.0844 59.9907 56.8585 57.809 56.8585C55.6273 56.8585 53.8505 55.0844 53.8505 52.906ZM50.7765 13.094V52.906C50.7765 56.7761 53.9291 59.924 57.8051 59.924C61.681 59.924 64.8337 56.7761 64.8337 52.906V13.094C64.8337 9.22389 61.681 6.07599 57.8051 6.07599C53.9291 6.07599 50.7765 9.22389 50.7765 13.094Z" fill="white"/>
</mask>
<g mask="url(#mask4_1_4)">
<path d="M54.2926 -0.000757912L27.4263 46.463L61.3198 66.002L88.1861 19.5382L54.2926 -0.000757912Z" fill="url(#paint4_linear_1_4)"/>
</g>
<mask id="mask5_1_4" style="mask-type:luminance" maskUnits="userSpaceOnUse" x="23" y="25" width="42" height="16">
<path d="M30.3786 25.9839C26.5027 25.9839 23.35 29.1319 23.35 33.002C23.35 36.8721 26.5027 40.02 30.3786 40.02H34.3371V36.9545H30.3786C28.1969 36.9545 26.4201 35.1804 26.4201 33.002C26.4201 30.8236 28.193 29.0494 30.3786 29.0494H50.7765V25.9839H30.3786ZM53.8505 25.9839V29.0494H57.809C59.9907 29.0494 61.7675 30.8196 61.7675 33.002C61.7675 35.1843 59.9907 36.9545 57.809 36.9545H37.4112V40.02H57.809C61.685 40.02 64.8376 36.8721 64.8376 33.002C64.8376 29.1319 61.685 25.9839 57.809 25.9839H53.8505Z" fill="white"/>
</mask>
<g mask="url(#mask5_1_4)">
<path d="M33.7203 8.04881L17.2632 36.5104L54.4624 57.955L70.9194 29.4934L33.7203 8.04881Z" fill="url(#paint5_linear_1_4)"/>
</g>
</g>
<defs>
<linearGradient id="paint0_linear_1_4" x1="42.7085" y1="12.1442" x2="18.4719" y2="54.1866" gradientUnits="userSpaceOnUse">
<stop stop-color="#00F09E"/>
<stop offset="0.16" stop-color="#00F09E"/>
<stop offset="0.31" stop-color="#00EAA4"/>
<stop offset="0.52" stop-color="#01DAB8"/>
<stop offset="0.76" stop-color="#02C0D8"/>
<stop offset="1" stop-color="#04A2FD"/>
</linearGradient>
<linearGradient id="paint1_linear_1_4" x1="45.5247" y1="53.8661" x2="69.7614" y2="11.8237" gradientUnits="userSpaceOnUse">
<stop stop-color="#00F09E"/>
<stop offset="0.14" stop-color="#00E8A6"/>
<stop offset="0.35" stop-color="#01D5BD"/>
<stop offset="0.62" stop-color="#02B6E3"/>
<stop offset="0.78" stop-color="#04A2FD"/>
<stop offset="1" stop-color="#04A2FD"/>
</linearGradient>
<linearGradient id="paint2_linear_1_4" x1="36.8507" y1="44.8446" x2="50.7035" y2="20.8145" gradientUnits="userSpaceOnUse">
<stop stop-color="#00F09E"/>
<stop offset="0.16" stop-color="#00F09E"/>
<stop offset="0.24" stop-color="#00EAA4"/>
<stop offset="0.36" stop-color="#01DAB8"/>
<stop offset="0.49" stop-color="#02C0D8"/>
<stop offset="0.62" stop-color="#04A2FD"/>
<stop offset="1" stop-color="#04A2FD"/>
</linearGradient>
<linearGradient id="paint3_linear_1_4" x1="42.7085" y1="12.1442" x2="18.4719" y2="54.1866" gradientUnits="userSpaceOnUse">
<stop stop-color="#00F09E"/>
<stop offset="0.16" stop-color="#00F09E"/>
<stop offset="0.31" stop-color="#00EAA4"/>
<stop offset="0.52" stop-color="#01DAB8"/>
<stop offset="0.76" stop-color="#02C0D8"/>
<stop offset="1" stop-color="#04A2FD"/>
</linearGradient>
<linearGradient id="paint4_linear_1_4" x1="45.5247" y1="53.8661" x2="69.7614" y2="11.8237" gradientUnits="userSpaceOnUse">
<stop stop-color="#00F09E"/>
<stop offset="0.14" stop-color="#00E8A6"/>
<stop offset="0.35" stop-color="#01D5BD"/>
<stop offset="0.62" stop-color="#02B6E3"/>
<stop offset="0.78" stop-color="#04A2FD"/>
<stop offset="1" stop-color="#04A2FD"/>
</linearGradient>
<linearGradient id="paint5_linear_1_4" x1="36.8507" y1="44.8446" x2="50.7035" y2="20.8145" gradientUnits="userSpaceOnUse">
<stop stop-color="#00F09E"/>
<stop offset="0.16" stop-color="#00F09E"/>
<stop offset="0.24" stop-color="#00EAA4"/>
<stop offset="0.36" stop-color="#01DAB8"/>
<stop offset="0.49" stop-color="#02C0D8"/>
<stop offset="0.62" stop-color="#04A2FD"/>
<stop offset="1" stop-color="#04A2FD"/>
</linearGradient>
<clipPath id="clip0_1_4">
<rect width="244" height="66" fill="white"/>
</clipPath>
</defs>
</svg>
