<svg width="190" height="47" viewBox="0 0 190 47" fill="none" xmlns="http://www.w3.org/2000/svg">
<g clip-path="url(#clip0_17_243)">
<path d="M62.9341 21.363H52.5825V9.95435H47.8406V36.4565H52.5825V25.1394H62.9341V36.4565H67.676V9.95435H62.9341V21.363Z" fill="#FCFAF9"/>
<path d="M86.2647 18.314C84.7615 17.4768 82.9772 17.0552 80.9179 17.0552C78.8586 17.0552 77.1476 17.4707 75.6015 18.3018C74.0555 19.1328 72.8517 20.2938 71.984 21.7787C71.1163 23.2636 70.6824 24.993 70.6824 26.9728C70.6824 28.9527 71.1102 30.6148 71.9657 32.1119C72.8212 33.6091 74.0189 34.7762 75.5527 35.6134C77.0864 36.4505 78.8769 36.8722 80.924 36.8722C82.4333 36.8722 83.7777 36.6889 84.957 36.3222C86.1364 35.9556 87.1386 35.4667 87.9696 34.8495C88.7946 34.2324 89.4423 33.5418 89.9006 32.7841C90.3589 32.0203 90.6278 31.2442 90.7011 30.4376H85.9958C85.9592 30.7493 85.8431 31.0609 85.6475 31.3725C85.452 31.6842 85.1587 31.9775 84.7676 32.2464C84.3765 32.5152 83.8754 32.7291 83.2644 32.8819C82.6533 33.0347 81.9261 33.1141 81.089 33.1141C79.8546 33.1141 78.8097 32.8636 77.9542 32.3686C77.0987 31.8736 76.4448 31.1526 76.0049 30.2115C75.7543 29.6799 75.5832 29.0871 75.4732 28.4394H90.8966C90.9211 28.3111 90.9394 28.0972 90.9516 27.81C90.9638 27.5228 90.97 27.2539 90.97 27.0034C90.97 25.0296 90.5605 23.2942 89.7478 21.8032C88.9351 20.3122 87.7741 19.145 86.2708 18.3079L86.2647 18.314ZM76.0232 23.5753C76.4815 22.6648 77.1353 21.9682 77.9786 21.4793C78.8219 20.9966 79.8179 20.7521 80.9729 20.7521C82.1278 20.7521 83.0933 20.9782 83.8449 21.4243C84.6026 21.8765 85.1648 22.4631 85.5314 23.1842C85.837 23.7831 86.0081 24.4125 86.0631 25.0785H75.4977C75.6138 24.5286 75.7849 24.0275 76.0171 23.5692L76.0232 23.5753Z" fill="#FCFAF9"/>
<path d="M112.632 35.9189C112.467 35.6562 112.321 35.3323 112.199 34.9473C112.101 34.599 112.04 34.2079 112.009 33.768C111.979 33.328 111.966 32.8819 111.966 32.4297V23.7342C111.966 22.2493 111.551 21.0088 110.726 20.0128C109.901 19.0167 108.801 18.2773 107.438 17.7824C106.076 17.2935 104.566 17.043 102.929 17.043C101.169 17.043 99.5922 17.3118 98.205 17.8496C96.8179 18.3873 95.7241 19.1756 94.9236 20.2144C94.1292 21.2532 93.7259 22.5182 93.7259 24.0153H98.3945C98.3945 22.9154 98.7794 22.1087 99.5555 21.5954C100.325 21.0883 101.438 20.8316 102.886 20.8316C104.334 20.8316 105.33 21.0577 106.082 21.516C106.833 21.9743 107.212 22.6159 107.212 23.4592V23.4959C107.212 23.942 106.778 24.2597 105.911 24.4552C105.043 24.6508 103.515 24.8586 101.34 25.0724C99.8671 25.2069 98.5228 25.5002 97.3129 25.9646C96.103 26.4229 95.1436 27.0767 94.4286 27.9261C93.7137 28.7694 93.3593 29.8449 93.3593 31.1526C93.3593 32.3503 93.6648 33.3769 94.2759 34.2263C94.8869 35.0756 95.7302 35.7295 96.8118 36.1756C97.8873 36.6278 99.14 36.8477 100.57 36.8477C101.768 36.8477 102.874 36.695 103.894 36.4017C104.915 36.1022 105.788 35.6806 106.528 35.1368C106.858 34.8923 107.145 34.6235 107.402 34.3424C107.457 34.6112 107.518 34.8679 107.597 35.1062C107.719 35.4301 107.854 35.7173 108 35.9617C108.147 36.2061 108.269 36.3711 108.349 36.4567H113.017C112.92 36.3589 112.791 36.1817 112.62 35.9189H112.632ZM106.485 31.0792C105.972 31.782 105.293 32.3014 104.456 32.6314C103.619 32.9675 102.709 33.1324 101.725 33.1324C100.515 33.1324 99.6105 32.9369 99.0117 32.5397C98.4128 32.1425 98.1134 31.5498 98.1134 30.7615C98.1134 29.9732 98.4678 29.3621 99.1827 29.0016C99.8977 28.6411 100.961 28.3967 102.373 28.2622C103.472 28.1522 104.566 28.0056 105.642 27.8222C106.228 27.7184 106.766 27.6023 107.261 27.4739V28.3722C107.261 29.4721 107.004 30.3765 106.491 31.0731L106.485 31.0792Z" fill="#FCFAF9"/>
<path d="M120.411 8.37769V36.4625H115.755V8.37769H120.411Z" fill="#FCFAF9"/>
<path d="M133.818 36.8169C133.134 36.8169 132.443 36.7496 131.734 36.6213C131.026 36.4869 130.378 36.2425 129.791 35.8819C129.205 35.5214 128.734 34.9959 128.374 34.2993C128.013 33.6026 127.836 32.686 127.836 31.5494V21.149H123.326V17.3787H125.159C125.783 17.3787 126.272 17.3543 126.632 17.2993C126.993 17.2443 127.255 17.116 127.42 16.9143C127.585 16.7127 127.701 16.3888 127.75 15.9549C127.799 15.5211 127.83 14.91 127.83 14.1339V11.0969H132.572V17.3848H138.249V21.1551H132.572V30.1195C132.572 31.0056 132.682 31.7205 132.896 32.2583C133.109 32.796 133.623 33.0649 134.423 33.0649C134.808 33.0649 135.169 33.0282 135.511 32.9549C135.853 32.8816 136.11 32.8082 136.275 32.741V36.4441C136.049 36.5297 135.719 36.6091 135.285 36.6946C134.851 36.7802 134.362 36.823 133.812 36.823L133.818 36.8169Z" fill="#FCFAF9"/>
<path d="M157.693 19.1142C156.471 17.7454 154.705 17.0549 152.395 17.0549C150.812 17.0549 149.413 17.391 148.191 18.0631C147.329 18.5337 146.614 19.1386 146.015 19.8597V8.37769H141.292V36.4625H146.015V25.8054C146.015 24.8949 146.199 24.0944 146.571 23.3978C146.944 22.7012 147.476 22.1634 148.178 21.7723C148.881 21.3813 149.724 21.1857 150.72 21.1857C152.205 21.1857 153.256 21.6074 153.874 22.4506C154.491 23.2939 154.796 24.5099 154.796 26.0865V36.4564H159.52V24.8338C159.52 22.3895 158.909 20.483 157.687 19.1081L157.693 19.1142Z" fill="#FCFAF9"/>
<path d="M165.044 13.8531C164.28 13.8531 163.608 13.6454 163.04 13.236C162.471 12.8204 162.184 12.246 162.184 11.5005C162.184 10.755 162.471 10.1989 163.04 9.79564C163.608 9.38622 164.274 9.18457 165.044 9.18457C165.814 9.18457 166.455 9.38622 167.018 9.79564C167.58 10.2051 167.861 10.7734 167.861 11.5005C167.861 12.2277 167.58 12.8204 167.018 13.236C166.455 13.6515 165.796 13.8531 165.044 13.8531ZM162.691 36.4566V17.3729H167.366V36.4566H162.691Z" fill="#FCFAF9"/>
<path d="M189.603 35.9187C189.438 35.6559 189.291 35.3321 189.169 34.9471C189.071 34.5988 189.01 34.2077 188.98 33.7677C188.949 33.3277 188.937 32.8817 188.937 32.4295V23.7339C188.937 22.249 188.521 21.0086 187.696 20.0125C186.871 19.0165 185.771 18.2771 184.409 17.7821C183.046 17.2933 181.537 17.0427 179.899 17.0427C178.139 17.0427 176.563 17.3116 175.175 17.8493C173.788 18.3871 172.694 19.1754 171.894 20.2142C171.1 21.253 170.696 22.5179 170.696 24.015H175.365C175.365 22.9151 175.75 22.1085 176.526 21.5952C177.296 21.088 178.408 20.8314 179.856 20.8314C181.304 20.8314 182.301 21.0575 183.052 21.5158C183.804 21.9741 184.183 22.6157 184.183 23.459V23.4956C184.183 23.9417 183.749 24.2595 182.881 24.455C182.013 24.6505 180.486 24.8583 178.31 25.0722C176.838 25.2066 175.493 25.4999 174.283 25.9643C173.073 26.4227 172.114 27.0765 171.399 27.9259C170.684 28.7692 170.33 29.8446 170.33 31.1523C170.33 32.35 170.635 33.3766 171.246 34.226C171.857 35.0754 172.701 35.7292 173.782 36.1753C174.858 36.6275 176.11 36.8475 177.54 36.8475C178.738 36.8475 179.844 36.6947 180.865 36.4014C181.885 36.102 182.759 35.6804 183.498 35.1365C183.828 34.8921 184.115 34.6232 184.372 34.3421C184.427 34.611 184.488 34.8676 184.568 35.106C184.69 35.4298 184.824 35.717 184.971 35.9615C185.118 36.2059 185.24 36.3709 185.319 36.4564H189.988C189.89 36.3586 189.762 36.1814 189.591 35.9187H189.603ZM183.462 31.079C182.948 31.7817 182.27 32.3011 181.433 32.6311C180.596 32.9672 179.685 33.1322 178.701 33.1322C177.491 33.1322 176.587 32.9367 175.988 32.5395C175.389 32.1423 175.09 31.5495 175.09 30.7612C175.09 29.973 175.444 29.3619 176.159 29.0014C176.874 28.6408 177.937 28.3964 179.349 28.262C180.449 28.152 181.543 28.0053 182.618 27.822C183.205 27.7181 183.743 27.602 184.238 27.4737V28.372C184.238 29.4719 183.981 30.3763 183.468 31.0729L183.462 31.079Z" fill="#FCFAF9"/>
<path d="M35.717 23.2146V6.04959C35.717 2.71315 33.0039 0 29.6674 0C26.331 0 23.6179 2.71315 23.6179 6.04959V17.1588H12.1053V6.04959C12.1053 2.71315 9.38604 0 6.04959 0C2.71315 0 0 2.71315 0 6.04959V40.3734C0 43.7098 2.71315 46.423 6.04959 46.423C9.38604 46.423 12.0992 43.7098 12.0992 40.3734V29.2641H23.6117V40.3734C23.6117 43.7098 26.3249 46.423 29.6613 46.423C32.9978 46.423 35.7109 43.7098 35.7109 40.3734V23.2146H35.717ZM33.0711 23.2146C33.0711 25.0905 31.5434 26.6182 29.6674 26.6182H26.2577V19.8048H29.6674C31.5434 19.8048 33.0711 21.3325 33.0711 23.2084V23.2146ZM26.2577 6.04959C26.2577 4.17361 27.7854 2.63982 29.6674 2.63982C31.5495 2.63982 33.0711 4.1675 33.0711 6.04959V18.216C32.0995 17.5499 30.9263 17.1588 29.6674 17.1588H26.2577V6.04959ZM6.04959 2.64593C7.92558 2.64593 9.45325 4.17361 9.45325 6.0557V17.165H6.04959C4.78468 17.165 3.61753 17.556 2.64593 18.216V6.04959C2.64593 4.17361 4.17361 2.63982 6.04959 2.63982V2.64593ZM9.45936 19.8048V26.6182H6.0557C4.17972 26.6182 2.65204 25.0905 2.65204 23.2084C2.65204 21.3263 4.17972 19.8048 6.0557 19.8048H9.45936ZM9.45936 40.3795C9.45936 42.2555 7.93169 43.7832 6.0557 43.7832C4.17972 43.7832 2.65204 42.2555 2.65204 40.3795V28.2131C3.62365 28.8792 4.7969 29.2641 6.0557 29.2641H9.45936V40.3734V40.3795ZM12.1053 26.6182V19.8048H23.6179V26.6182H12.1053ZM29.6613 43.7832C27.7854 43.7832 26.2516 42.2555 26.2516 40.3795V29.2703H29.6613C30.9263 29.2703 32.0995 28.8792 33.065 28.2192V40.3856C33.065 42.2616 31.5373 43.7893 29.6613 43.7893V43.7832Z" fill="#FCFAF9"/>
</g>
<defs>
<clipPath id="clip0_17_243">
<rect width="190" height="46.4291" fill="white"/>
</clipPath>
</defs>
</svg>
