<svg width="72" height="72" viewBox="0 0 72 72" fill="none" xmlns="http://www.w3.org/2000/svg">
<circle cx="36" cy="36" r="36" fill="url(#paint0_linear_182_4)"/>
<path d="M38.1739 15.6966L43.6411 26.7895C43.9217 27.3508 44.4465 27.7413 45.0689 27.8268L57.3089 29.6084C58.8587 29.8403 59.4811 31.744 58.3583 32.8424L49.4987 41.4701C49.0472 41.9095 48.8519 42.5318 48.9495 43.142L51.0363 55.3332C51.3048 56.883 49.6817 58.0667 48.2906 57.3345L37.3441 51.5745C36.795 51.2817 36.136 51.2817 35.5868 51.5745L24.6404 57.3345C23.2492 58.0667 21.6261 56.883 21.8946 55.3332L23.9814 43.142C24.0912 42.5318 23.8838 41.8973 23.4322 41.4701L14.5726 32.8424C13.4499 31.744 14.0722 29.8403 15.6221 29.6084L27.8621 27.8268C28.4844 27.7413 29.0092 27.3508 29.2899 26.7895L34.757 15.6966C35.4526 14.2932 37.4661 14.2932 38.1495 15.6966H38.1739Z" fill="#FFFCFC"/>
<defs>
<linearGradient id="paint0_linear_182_4" x1="-3.16319" y1="-4.36819" x2="87.2134" y2="88.2678" gradientUnits="userSpaceOnUse">
<stop stop-color="#00F09E"/>
<stop offset="0.16" stop-color="#00F09E"/>
<stop offset="0.24" stop-color="#00EAA4"/>
<stop offset="0.36" stop-color="#01DAB8"/>
<stop offset="0.49" stop-color="#02C0D8"/>
<stop offset="0.62" stop-color="#04A2FD"/>
<stop offset="1" stop-color="#04A2FD"/>
</linearGradient>
</defs>
</svg>
